<?xml version="1.0" encoding="UTF-8" standalone="no"?>
<svg width="248px" height="58px" viewBox="0 0 248 58" version="1.1" xmlns="http://www.w3.org/2000/svg" xmlns:xlink="http://www.w3.org/1999/xlink" xmlns:sketch="http://www.bohemiancoding.com/sketch/ns">
    <!-- Generator: Sketch 3.3 (11970) - http://www.bohemiancoding.com/sketch -->
    <title>Imported Layers</title>
    <desc>Created with Sketch.</desc>
    <defs></defs>
    <g id="Page-1" stroke="none" stroke-width="1" fill="none" fill-rule="evenodd" sketch:type="MSPage">
        <g id="Artboard-1-Copy-5" sketch:type="MSArtboardGroup" transform="translate(-22.000000, -33.000000)">
            <g id="Imported-Layers" sketch:type="MSLayerGroup" transform="translate(21.000000, 33.000000)">
                <path d="M19.878178,9.63116364 L16.7002119,12.6049818 C18.0338983,16.3370182 18.2891949,19.8802909 18.2891949,21.9682909 L18.2891949,41.3286909 C18.2891949,45.5679636 18.2891949,50.4399636 13.1408898,55.1232 C12.8220339,55.4374545 12.3146186,55.8181455 11.7425847,56.2610545 C7.92902542,59.2970909 4.05190678,57.3999636 3.03495763,55.5650545 C4.36970339,54.6159636 8.11970339,51.8952364 9.26377119,50.8828727 C12.5052966,47.9101091 12.5052966,45.1250545 12.5052966,41.3286909 L12.5052966,36.2046545 L2.52754237,45.2516 C0.366525424,42.9748364 0.556144068,39.3682909 2.84427966,37.2159636 L12.5052966,28.4853818 L12.5052966,21.9682909 C12.5052966,20.7661091 12.378178,18.9312 11.9332627,16.9064727 L2.52754237,25.4482909 C0.366525424,23.1072 0.556144068,19.5006545 2.84427966,17.3493818 L9.64512712,11.2129818 C9.5815678,11.1486545 9.5815678,11.0231636 9.51800847,10.9598909 C6.53072034,6.21443636 3.98940678,3.68247273 2.71716102,2.41807273 C3.79766949,0.900581818 7.8654661,0.0147636364 10.4713983,2.73443636 C11.8061441,4.18970909 12.6959746,5.32861818 13.967161,7.28901818 L20.2595339,1.59552727 C22.3559322,3.93661818 22.2288136,7.54210909 19.878178,9.63116364 L19.878178,9.63116364 Z M58.2023305,20.0078909 C58.2023305,23.1715273 55.5963983,25.7013818 52.4819915,25.7013818 L21.3400424,25.7013818 C21.3400424,22.6010182 23.8824153,20.0078909 27.059322,20.0078909 L28.7118644,20.0078909 L28.7118644,13.4275273 L22.1663136,13.4275273 C22.1663136,10.2638909 24.7722458,7.73192727 27.8855932,7.73192727 L28.7118644,7.73192727 L28.7118644,6.65734545 C28.7118644,3.49370909 31.2542373,0.9628 34.4322034,0.9628 L34.4322034,7.73192727 L45.3633475,7.73192727 L45.3633475,6.65734545 C45.3633475,3.49370909 47.9692797,0.9628 51.0847458,0.9628 L51.0847458,7.73192727 L57.3125,7.73192727 C57.3125,10.8333455 54.7701271,13.4275273 51.592161,13.4275273 L51.0847458,13.4275273 L51.0847458,20.0078909 L58.2023305,20.0078909 L58.2023305,20.0078909 Z M30.4290254,29.0548364 L54.9618644,29.0548364 L54.9618644,50.6930545 C54.9618644,53.8556364 52.4184322,56.3876 49.2404661,56.3876 L24.7076271,56.3876 L24.7076271,34.7483273 C24.7076271,31.5846909 27.2510593,29.0548364 30.4290254,29.0548364 L30.4290254,29.0548364 Z M30.4290254,39.8744727 L49.2415254,39.8744727 L49.2415254,34.7493818 L30.4290254,34.7493818 L30.4290254,39.8744727 Z M30.4290254,50.6930545 L49.2415254,50.6930545 L49.2415254,45.5679636 L30.4290254,45.5679636 L30.4290254,50.6930545 Z M34.4322034,20.0078909 L45.3633475,20.0078909 L45.3633475,13.4275273 L34.4322034,13.4275273 L34.4322034,20.0078909 Z" id="Fill-1" fill="#FF8866" sketch:type="MSShapeGroup"></path>
                <path d="M84.4544492,30.8275273 C85.8527542,33.6737455 84.6440678,37.0904727 81.8485169,38.4192 L77.907839,30.5101091 L77.907839,52.2116 C77.907839,55.3752364 75.3019068,57.9050909 72.1875,57.9050909 L72.1875,33.2308364 L68.4375,43.6075636 C65.2595339,42.4043273 63.7341102,38.8621091 64.9427966,35.7617455 L71.996822,17.9188364 L64.5603814,17.9188364 C64.5603814,14.7552 67.1038136,12.2253455 70.2807203,12.2253455 L72.1875,12.2253455 L72.1875,6.65734545 C72.1875,3.49370909 74.7298729,0.9628 77.907839,0.9628 L77.907839,12.2253455 L84.6440678,12.2253455 C84.6440678,15.3246545 82.1027542,17.9188364 78.9247881,17.9188364 L77.907839,17.9188364 L77.907839,22.5377455 C78.3527542,21.9682909 78.9872881,21.5253818 79.6875,21.2090182 L84.4544492,30.8275273 L84.4544492,30.8275273 Z M106.127119,14.6929818 L106.127119,22.1581091 L120.045551,22.1581091 C120.045551,25.3217455 117.504237,27.8526545 114.326271,27.8526545 L86.5508475,27.8526545 C86.5508475,24.6890182 89.0932203,22.1581091 92.2711864,22.1581091 L100.40678,22.1581091 L100.40678,14.6929818 L85.8527542,14.6929818 C85.8527542,11.5293455 88.3940678,8.99843636 91.5720339,8.99843636 L100.40678,8.99843636 L100.40678,6.65734545 C100.40678,3.49370909 103.012712,0.9628 106.127119,0.9628 L106.127119,8.99843636 L121.761653,8.99843636 C121.761653,12.1620727 119.15572,14.6929818 116.041314,14.6929818 L106.127119,14.6929818 L106.127119,14.6929818 Z M93.6059322,32.8512 L118.710805,32.8512 L118.710805,50.5032364 C118.710805,53.6668727 116.168432,56.1977818 112.990466,56.1977818 L87.8866525,56.1977818 L87.8866525,38.5457455 C87.8866525,35.4443273 90.4279661,32.8512 93.6059322,32.8512 L93.6059322,32.8512 Z M93.6059322,50.5032364 L112.990466,50.5032364 L112.990466,38.5457455 L93.6059322,38.5457455 L93.6059322,50.5032364 Z" id="Fill-2" fill="#FF8866" sketch:type="MSShapeGroup"></path>
                <path d="M153.288136,8.99843636 L128.119703,8.99843636 C128.119703,5.8348 130.663136,3.30389091 133.840042,3.30389091 L159.008475,3.30389091 C159.008475,6.4032 156.466102,8.99843636 153.288136,8.99843636 L153.288136,8.99843636 Z M157.038136,51.3257818 C157.038136,54.4261455 154.432203,57.0192727 151.254237,57.0192727 L145.534958,57.0192727 C145.534958,53.8556364 148.14089,51.3257818 151.254237,51.3257818 L151.254237,33.1042909 L135.873941,33.1042909 L135.873941,52.2116 C135.873941,55.5650545 133.331568,57.9050909 130.153602,57.9050909 L130.153602,33.1042909 C130.153602,29.9406545 132.697034,27.4097455 135.873941,27.4097455 L157.038136,27.4097455 L157.038136,51.3257818 L157.038136,51.3257818 Z M137.081568,11.0864364 L155.894068,11.0864364 L155.894068,19.5649818 C155.894068,22.7286182 153.352754,25.2584727 150.174788,25.2584727 L131.361229,25.2584727 L131.361229,16.7799273 C131.361229,13.6162909 133.903602,11.0864364 137.081568,11.0864364 L137.081568,11.0864364 Z M145.916314,49.5541455 C145.916314,52.2738182 143.755297,54.4261455 141.022246,54.4261455 L141.022246,46.1374182 L136.827331,46.1374182 C136.827331,44.1126909 137.907839,42.4043273 139.560381,41.4562909 L137.272246,35.4443273 C139.560381,34.6228364 142.102754,35.7617455 142.929025,38.0385091 L143.691737,39.9366909 L144.39089,38.0385091 C145.28072,35.7617455 147.823093,34.6228364 150.04661,35.4443273 L148.076271,40.7592364 L150.174788,40.7592364 C150.174788,43.2901455 148.330508,45.4424727 145.916314,46.0108727 L145.916314,49.5541455 L145.916314,49.5541455 Z M137.081568,19.5649818 L150.173729,19.5649818 L150.173729,16.7799273 L137.081568,16.7799273 L137.081568,19.5649818 Z M185.320975,57.7796 C182.970339,58.2225091 180.617585,57.2101455 179.347458,55.3119636 L157.038136,57.7796 C156.657839,54.6159636 158.944915,51.8309091 162.059322,51.4523273 L168.096398,50.7563273 L168.096398,41.5828364 L159.008475,41.5828364 L159.008475,15.8941091 C159.008475,12.9202909 161.423729,10.5169818 164.411017,10.5169818 L168.096398,10.5169818 L168.096398,6.72061818 C168.096398,3.55698182 170.702331,1.02607273 173.817797,1.02607273 L173.817797,10.5169818 L182.970339,10.5169818 L182.970339,36.2046545 C182.970339,39.1774182 180.491525,41.5828364 177.503178,41.5828364 L173.817797,41.5828364 L173.817797,50.1236 L177.693856,49.7439636 L176.231992,43.3534182 C179.347458,42.7217455 182.397246,44.6821455 183.032839,47.7825091 L185.320975,57.7796 L185.320975,57.7796 Z M164.411017,36.2046545 L168.096398,36.2046545 L168.096398,15.8941091 L164.411017,15.8941091 L164.411017,36.2046545 Z M173.817797,36.2046545 L177.503178,36.2046545 L177.503178,15.8941091 L173.817797,15.8941091 L173.817797,36.2046545 Z" id="Fill-3" fill="#FFFFFF" sketch:type="MSShapeGroup"></path>
                <path d="M191.933263,30.1304727 L201.212924,18.9944727 C203.246822,16.5911636 206.806144,16.2748 209.221398,18.2995273 L199.941737,29.4344727 C197.907839,31.8377818 194.348517,32.1552 191.933263,30.1304727 L191.933263,30.1304727 Z M221.29661,46.2006909 C219.898305,48.9846909 217.991525,51.2625091 215.512712,53.0341455 C211.762712,55.6916 206.550847,57.2101455 199.560381,57.7796 C194.475636,58.2225091 192.886653,55.6916 192.633475,52.4014182 C202.102754,52.4014182 208.331568,51.1359636 212.207627,48.3530182 C214.433263,46.8334182 215.957627,44.6821455 216.974576,41.7083273 C218.563559,37.2159636 221.614407,36.5832364 223.902542,37.0904727 C223.394068,40.6970182 222.567797,43.6697818 221.29661,46.2006909 L221.29661,46.2006909 Z M193.777542,1.15261818 L205.026483,8.04934545 C207.694915,9.69338182 208.522246,13.1733818 206.869703,15.8308364 L195.619703,8.93516364 C192.950212,7.28901818 192.123941,3.81007273 193.777542,1.15261818 L193.777542,1.15261818 Z M236.233051,48.5417818 L236.233051,35.6341455 L204.327331,35.6341455 L204.327331,45.5679636 C204.327331,48.7316 201.784958,51.2625091 198.606992,51.2625091 L198.606992,35.6341455 C198.606992,32.5348364 201.149364,29.9406545 204.327331,29.9406545 L241.952331,29.9406545 L241.952331,42.8472364 C241.952331,46.0108727 239.409958,48.5417818 236.233051,48.5417818 L236.233051,48.5417818 Z M210.365466,18.9944727 L216.340042,4.88570909 C217.737288,1.59552727 221.487288,0.0769818182 224.792373,1.46898182 L223.012712,5.64498182 L247.227754,5.64498182 L247.227754,13.2999273 C247.164195,16.4013455 244.621822,18.9312 241.507415,18.9312 L241.507415,11.3384727 L233.754237,11.3384727 C230.131356,21.9682909 222.186441,26.6504727 218.436441,28.3598909 C215.577331,29.6242909 212.207627,28.4853818 210.872881,25.7013818 C210.872881,25.7013818 215.067797,23.6766545 216.275424,23.0439273 C218.628178,21.8417455 224.284958,18.5515636 227.588983,11.3384727 L220.662076,11.3384727 L218.881356,15.5788 C217.48411,18.8689818 213.669492,20.3864727 210.365466,18.9944727 L210.365466,18.9944727 Z M228.668432,45.5679636 L247.863347,54.4894182 C246.465042,57.4621818 242.842161,58.7286909 239.855932,57.2734182 L220.978814,48.5417818 C222.377119,45.5679636 225.682203,44.1126909 228.668432,45.5679636 L228.668432,45.5679636 Z M249.006356,26.3351636 C247.418432,29.0548364 243.986229,29.9406545 241.253178,28.3598909 L229.305085,21.0824727 C230.829449,18.3617455 234.325212,17.4759273 237.058263,18.9944727 L249.006356,26.3351636 L249.006356,26.3351636 Z" id="Fill-4" fill="#FFFFFF" sketch:type="MSShapeGroup"></path>
            </g>
        </g>
    </g>
</svg>