<?xml version="1.0" encoding="UTF-8" standalone="no"?>
<svg width="121px" height="58px" viewBox="0 0 121 58" version="1.1" xmlns="http://www.w3.org/2000/svg" xmlns:xlink="http://www.w3.org/1999/xlink" xmlns:sketch="http://www.bohemiancoding.com/sketch/ns">
    <!-- Generator: Sketch 3.3 (11970) - http://www.bohemiancoding.com/sketch -->
    <title>Imported Layers</title>
    <desc>Created with Sketch.</desc>
    <defs></defs>
    <g id="Page-1" stroke="none" stroke-width="1" fill="none" fill-rule="evenodd" sketch:type="MSPage">
        <g id="Artboard-1-Copy-3" sketch:type="MSArtboardGroup" transform="translate(-43.000000, -17.000000)" fill="#FFFFFF">
            <g id="Imported-Layers" sketch:type="MSLayerGroup" transform="translate(43.000000, 17.000000)">
                <path d="M19.5998957,9.43712727 L16.4433739,12.4109455 C17.769113,16.1440364 18.0216348,19.6862545 18.0216348,21.7742545 L18.0216348,41.1357091 C18.0216348,45.3739273 18.0216348,50.2459273 12.9080696,54.9291636 C12.5924174,55.2444727 12.0873739,55.6241091 11.5192,56.0670182 C7.73137391,59.1041091 3.88041739,57.2059273 2.87138261,55.3720727 C4.19606957,54.4219273 7.92076522,51.7012 9.05711304,50.6888364 C12.2767652,47.7160727 12.2767652,44.9310182 12.2767652,41.1357091 L12.2767652,36.0106182 L2.36633913,45.0586182 C0.218852174,42.7808 0.409295652,39.1742545 2.68093913,37.0219273 L12.2767652,28.2913455 L12.2767652,21.7742545 C12.2767652,20.5731273 12.1505043,18.7382182 11.7085913,16.7134909 L2.36633913,25.2542545 C0.218852174,22.9131636 0.409295652,19.3076727 2.68093913,17.1564 L9.43589565,11.0189455 C9.37276522,10.9556727 9.37276522,10.8291273 9.30963478,10.7658545 C6.34250435,6.0204 3.81728696,3.48949091 2.55467826,2.22403636 C3.62789565,0.705490909 7.66824348,-0.180327273 10.2565913,2.5404 C11.5823304,3.99567273 12.4661565,5.13458182 13.7287652,7.09603636 L19.9786783,1.40149091 C22.0619826,3.74258182 21.9357217,7.34912727 19.5998957,9.43712727 L19.5998957,9.43712727 Z M57.6654435,19.8138545 C57.6654435,22.9774909 55.0770957,25.5073455 51.9837043,25.5073455 L21.0518957,25.5073455 C21.0518957,22.4080364 23.577113,19.8138545 26.7325826,19.8138545 L28.3739739,19.8138545 L28.3739739,13.2334909 L21.8725913,13.2334909 C21.8725913,10.0698545 24.4609391,7.53894545 27.5543304,7.53894545 L28.3739739,7.53894545 L28.3739739,6.46330909 C28.3739739,3.29967273 30.8991913,0.768763636 34.055713,0.768763636 L34.055713,7.53894545 L44.9141478,7.53894545 L44.9141478,6.46330909 C44.9141478,3.29967273 47.5014435,0.768763636 50.5948348,0.768763636 L50.5948348,7.53894545 L56.7816174,7.53894545 C56.7816174,10.6393091 54.2564,13.2334909 51.0998783,13.2334909 L50.5948348,13.2334909 L50.5948348,19.8138545 L57.6654435,19.8138545 L57.6654435,19.8138545 Z M30.0784957,28.8608 L54.4468435,28.8608 L54.4468435,50.5000727 C54.4468435,53.6626545 51.9216261,56.1935636 48.7651043,56.1935636 L24.3978087,56.1935636 L24.3978087,34.5553455 C24.3978087,31.3917091 26.9219739,28.8608 30.0784957,28.8608 L30.0784957,28.8608 Z M30.0784957,39.6804364 L48.7640522,39.6804364 L48.7640522,34.5553455 L30.0784957,34.5553455 L30.0784957,39.6804364 Z M30.0784957,50.5000727 L48.7640522,50.5000727 L48.7640522,45.3749818 L30.0784957,45.3749818 L30.0784957,50.5000727 Z M34.055713,19.8138545 L44.9130957,19.8138545 L44.9130957,13.2334909 L34.055713,13.2334909 L34.055713,19.8138545 Z" id="Fill-1" sketch:type="MSShapeGroup"></path>
                <path d="M83.7404174,30.6324364 C85.129287,33.4797091 83.9298087,36.8964364 81.1520696,38.2251636 L77.2379826,30.3160727 L77.2379826,52.0175636 C77.2379826,55.1812 74.6496348,57.7121091 71.5562435,57.7121091 L71.5562435,33.0368 L67.8315478,43.4135273 C64.6750261,42.2102909 63.1598957,38.6680727 64.3593739,35.5677091 L71.3668522,17.7258545 L63.9816435,17.7258545 C63.9816435,14.5622182 66.5058087,12.0313091 69.6623304,12.0313091 L71.5562435,12.0313091 L71.5562435,6.46330909 C71.5562435,3.29967273 74.0814609,0.768763636 77.2379826,0.768763636 L77.2379826,12.0313091 L83.9298087,12.0313091 C83.9298087,15.1316727 81.4045913,17.7258545 78.2480696,17.7258545 L77.2379826,17.7258545 L77.2379826,22.3437091 C77.6798957,21.7742545 78.3112,21.3313455 79.0056348,21.0160364 L83.7404174,30.6324364 L83.7404174,30.6324364 Z M105.266843,14.4989455 L105.266843,21.9640727 L119.092409,21.9640727 C119.092409,25.1277091 116.567191,27.6586182 113.41067,27.6586182 L85.8226696,27.6586182 C85.8226696,24.4949818 88.3489391,21.9640727 91.5054609,21.9640727 L99.5861565,21.9640727 L99.5861565,14.4989455 L85.129287,14.4989455 C85.129287,11.3353091 87.6545043,8.8044 90.8110261,8.8044 L99.5861565,8.8044 L99.5861565,6.46330909 C99.5861565,3.29967273 102.173452,0.768763636 105.266843,0.768763636 L105.266843,8.8044 L120.79693,8.8044 C120.79693,11.9680364 118.208583,14.4989455 115.114139,14.4989455 L105.266843,14.4989455 L105.266843,14.4989455 Z M92.8312,32.6571636 L117.76667,32.6571636 L117.76667,50.3092 C117.76667,53.4728364 115.2404,56.0037455 112.083878,56.0037455 L87.1494609,56.0037455 L87.1494609,38.3517091 C87.1494609,35.2513455 89.6746783,32.6571636 92.8312,32.6571636 L92.8312,32.6571636 Z M92.8312,50.3092 L112.08493,50.3092 L112.08493,38.3517091 L92.8312,38.3517091 L92.8312,50.3092 Z" id="Fill-2" sketch:type="MSShapeGroup"></path>
            </g>
        </g>
    </g>
</svg>