<?xml version="1.0" encoding="UTF-8" standalone="no"?>
<svg width="90px" height="90px" viewBox="0 0 90 90" version="1.1" xmlns="http://www.w3.org/2000/svg" xmlns:xlink="http://www.w3.org/1999/xlink" xmlns:sketch="http://www.bohemiancoding.com/sketch/ns">
    <!-- Generator: Sketch 3.3 (11970) - http://www.bohemiancoding.com/sketch -->
    <title>Artboard 1 Copy 2</title>
    <desc>Created with Sketch.</desc>
    <defs></defs>
    <g id="Page-1" stroke="none" stroke-width="1" fill="none" fill-rule="evenodd" sketch:type="MSPage">
        <g id="Artboard-1-Copy-2" sketch:type="MSArtboardGroup" fill="#455A64">
            <g id="Imported-Layers" sketch:type="MSLayerGroup" transform="translate(3.000000, 6.000000)">
                <path d="M75.1601053,38.4027778 L83.5114737,38.4027778 L83.5114737,40.5972222 L75.1601053,40.5972222 L75.1601053,38.4027778 Z" id="Fill-1" sketch:type="MSShapeGroup"></path>
                <path d="M66.1588421,16.68875 L64.5915789,15.1394722 L70.4958947,9.243 L72.0631579,10.7922778 L66.1588421,16.68875" id="Fill-2" sketch:type="MSShapeGroup"></path>
                <path d="M41.7546316,78.2648611 L23.9488421,62.7962222 L23.9488421,16.2037778 L41.7546316,0.735138889 L59.5626316,16.2037778 L59.5626316,62.7962222 L41.7546316,78.2648611 L41.7546316,78.2648611 Z M26.1593684,61.7999444 L41.7546316,75.34625 L57.3521053,61.7999444 L57.3521053,17.2000556 L41.7546316,3.65375 L26.1593684,17.2000556 L26.1593684,61.7999444 L26.1593684,61.7999444 Z" id="Fill-3" sketch:type="MSShapeGroup"></path>
                <path d="M41.7546316,16.9169722 L34.3803158,9.55241667 L35.9453684,8.00533333 L41.7546316,13.80525 L47.5638947,8.00533333 L49.1311579,9.55241667 L41.7546316,16.9169722" id="Fill-4" sketch:type="MSShapeGroup"></path>
                <path d="M47.5638947,70.9946667 L41.7546316,65.19475 L35.9453684,70.9946667 L34.3803158,69.4497778 L41.7546316,62.0830278 L49.1311579,69.4497778 L47.5638947,70.9946667" id="Fill-5" sketch:type="MSShapeGroup"></path>
                <path d="M40.6493684,15.3611111 L42.8598947,15.3611111 L42.8598947,63.6388889 L40.6493684,63.6388889 L40.6493684,15.3611111 Z" id="Fill-6" sketch:type="MSShapeGroup"></path>
                <path d="M30.2112632,10.9722222 L32.4217895,10.9722222 L32.4217895,68.0277778 L30.2112632,68.0277778 L30.2112632,10.9722222 Z" id="Fill-7" sketch:type="MSShapeGroup"></path>
                <path d="M51.0896842,10.9722222 L53.3002105,10.9722222 L53.3002105,68.0277778 L51.0896842,68.0277778 L51.0896842,10.9722222 Z" id="Fill-8" sketch:type="MSShapeGroup"></path>
                <path d="M17.3526316,16.68875 L11.4483158,10.7922778 L13.0155789,9.243 L18.9198947,15.1394722 L17.3526316,16.68875" id="Fill-9" sketch:type="MSShapeGroup"></path>
                <path d="M13.0155789,69.757 L11.4483158,68.2099167 L17.3526316,62.31125 L18.9198947,63.8605278 L13.0155789,69.757" id="Fill-10" sketch:type="MSShapeGroup"></path>
                <path d="M0.132631579,38.4027778 L8.35357895,38.4027778 L8.35357895,40.5972222 L0.132631579,40.5972222 L0.132631579,38.4027778 Z" id="Fill-11" sketch:type="MSShapeGroup"></path>
                <path d="M70.4958947,69.757 L64.5915789,63.8605278 L66.1588421,62.31125 L72.0631579,68.2099167 L70.4958947,69.757" id="Fill-12" sketch:type="MSShapeGroup"></path>
            </g>
        </g>
    </g>
</svg>