<?xml version="1.0" encoding="UTF-8" standalone="no"?>
<svg width="90px" height="90px" viewBox="0 0 90 90" version="1.1" xmlns="http://www.w3.org/2000/svg" xmlns:xlink="http://www.w3.org/1999/xlink" xmlns:sketch="http://www.bohemiancoding.com/sketch/ns">
    <!-- Generator: Sketch 3.3 (11970) - http://www.bohemiancoding.com/sketch -->
    <title>Artboard 1 Copy</title>
    <desc>Created with Sketch.</desc>
    <defs></defs>
    <g id="Page-1" stroke="none" stroke-width="1" fill="none" fill-rule="evenodd" sketch:type="MSPage">
        <g id="Artboard-1-Copy" sketch:type="MSArtboardGroup" fill="#455A64">
            <g id="Imported-Layers" sketch:type="MSLayerGroup" transform="translate(10.000000, 10.000000)">
                <path d="M49.7911176,14.2352941 L47.6146471,14.2352941 L47.6146471,11.6235294 C47.6146471,6.46311765 43.5468235,2.26470588 38.5452941,2.26470588 L33.4675882,2.26470588 C28.4660588,2.26470588 24.3982353,6.46311765 24.3982353,11.6235294 L24.3982353,14.2352941 L22.2217647,14.2352941 L22.2217647,11.6235294 C22.2217647,5.26170588 27.269,0.0882352941 33.4675882,0.0882352941 L38.5452941,0.0882352941 C44.7460588,0.0882352941 49.7911176,5.26170588 49.7911176,11.6235294 L49.7911176,14.2352941" id="Fill-1" sketch:type="MSShapeGroup"></path>
                <path d="M51.2428235,15.3235294 L42.5369412,15.3235294 L42.5369412,11.6235294 C42.5369412,9.34258824 40.7478824,7.48823529 38.5452941,7.48823529 L33.4675882,7.48823529 C31.2671765,7.48823529 29.4781176,9.34258824 29.4781176,11.6235294 L29.4781176,15.3235294 L20.7722353,15.3235294 L20.7722353,13.1470588 L27.3016471,13.1470588 L27.3016471,11.6235294 C27.3016471,8.14335294 30.0679412,5.31176471 33.4675882,5.31176471 L38.5452941,5.31176471 C41.9471176,5.31176471 44.7134118,8.14335294 44.7134118,11.6235294 L44.7134118,13.1470588 L51.2428235,13.1470588 L51.2428235,15.3235294" id="Fill-2" sketch:type="MSShapeGroup"></path>
                <path d="M69.7428235,71.9117647 L2.27223529,71.9117647 L2.27223529,45.7941176 L4.44870588,45.7941176 L4.44870588,69.7352941 L67.5663529,69.7352941 L67.5663529,45.7941176 L69.7428235,45.7941176 L69.7428235,71.9117647" id="Fill-3" sketch:type="MSShapeGroup"></path>
                <path d="M62.1251765,50.1470588 L41.4487059,50.1470588 L41.4487059,47.9705882 L62.1251765,47.9705882 C66.3257647,47.9705882 69.7428235,44.5535294 69.7428235,40.3529412 L69.7428235,19.6764706 L2.27223529,19.6764706 L2.27223529,40.3529412 C2.27223529,44.5535294 5.69147059,47.9705882 9.88988235,47.9705882 L30.5663529,47.9705882 L30.5663529,50.1470588 L9.88988235,50.1470588 C4.49005882,50.1470588 0.0957647059,45.7527647 0.0957647059,40.3529412 L0.0957647059,17.5 L71.9192941,17.5 L71.9192941,40.3529412 C71.9192941,45.7527647 67.5271765,50.1470588 62.1251765,50.1470588" id="Fill-4" sketch:type="MSShapeGroup"></path>
                <path d="M40.3604706,54.5 L31.6545882,54.5 C29.8546471,54.5 28.3898824,53.0352353 28.3898824,51.2352941 L28.3898824,43.6176471 L43.6251765,43.6176471 L43.6251765,51.2352941 C43.6251765,53.0352353 42.1604118,54.5 40.3604706,54.5 L40.3604706,54.5 Z M30.5663529,45.7941176 L30.5663529,51.2352941 C30.5663529,51.836 31.0560588,52.3235294 31.6545882,52.3235294 L40.3604706,52.3235294 C40.9611765,52.3235294 41.4487059,51.836 41.4487059,51.2352941 L41.4487059,45.7941176 L30.5663529,45.7941176 L30.5663529,45.7941176 Z" id="Fill-5" sketch:type="MSShapeGroup"></path>
                <path d="M15.3310588,18.5882353 L17.5075294,18.5882353 L17.5075294,19.6764706 L15.3310588,19.6764706 L15.3310588,18.5882353 Z" id="Fill-6" sketch:type="MSShapeGroup"></path>
                <path d="M15.3310588,43.6176471 L17.5075294,43.6176471 L17.5075294,45.7941176 L15.3310588,45.7941176 L15.3310588,43.6176471 Z M15.3310588,39.2647059 L17.5075294,39.2647059 L17.5075294,41.4411765 L15.3310588,41.4411765 L15.3310588,39.2647059 Z M15.3310588,34.9117647 L17.5075294,34.9117647 L17.5075294,37.0882353 L15.3310588,37.0882353 L15.3310588,34.9117647 Z M15.3310588,30.5588235 L17.5075294,30.5588235 L17.5075294,32.7352941 L15.3310588,32.7352941 L15.3310588,30.5588235 Z M15.3310588,26.2058824 L17.5075294,26.2058824 L17.5075294,28.3823529 L15.3310588,28.3823529 L15.3310588,26.2058824 Z M15.3310588,21.8529412 L17.5075294,21.8529412 L17.5075294,24.0294118 L15.3310588,24.0294118 L15.3310588,21.8529412 Z" id="Fill-7" sketch:type="MSShapeGroup"></path>
                <path d="M15.3310588,47.9705882 L17.5075294,47.9705882 L17.5075294,49.0588235 L15.3310588,49.0588235 L15.3310588,47.9705882 Z" id="Fill-8" sketch:type="MSShapeGroup"></path>
                <path d="M56.684,18.5882353 L58.8604706,18.5882353 L58.8604706,19.6764706 L56.684,19.6764706 L56.684,18.5882353 Z" id="Fill-9" sketch:type="MSShapeGroup"></path>
                <path d="M56.684,43.6176471 L58.8604706,43.6176471 L58.8604706,45.7941176 L56.684,45.7941176 L56.684,43.6176471 Z M56.684,39.2647059 L58.8604706,39.2647059 L58.8604706,41.4411765 L56.684,41.4411765 L56.684,39.2647059 Z M56.684,34.9117647 L58.8604706,34.9117647 L58.8604706,37.0882353 L56.684,37.0882353 L56.684,34.9117647 Z M56.684,30.5588235 L58.8604706,30.5588235 L58.8604706,32.7352941 L56.684,32.7352941 L56.684,30.5588235 Z M56.684,26.2058824 L58.8604706,26.2058824 L58.8604706,28.3823529 L56.684,28.3823529 L56.684,26.2058824 Z M56.684,21.8529412 L58.8604706,21.8529412 L58.8604706,24.0294118 L56.684,24.0294118 L56.684,21.8529412 Z" id="Fill-10" sketch:type="MSShapeGroup"></path>
                <path d="M56.684,47.9705882 L58.8604706,47.9705882 L58.8604706,49.0588235 L56.684,49.0588235 L56.684,47.9705882 Z" id="Fill-11" sketch:type="MSShapeGroup"></path>
            </g>
        </g>
    </g>
</svg>