<?xml version="1.0" encoding="UTF-8" standalone="no"?>
<svg width="90px" height="90px" viewBox="0 0 90 90" version="1.1" xmlns="http://www.w3.org/2000/svg" xmlns:xlink="http://www.w3.org/1999/xlink" xmlns:sketch="http://www.bohemiancoding.com/sketch/ns">
    <!-- Generator: Sketch 3.3 (11970) - http://www.bohemiancoding.com/sketch -->
    <title>Artboard 1</title>
    <desc>Created with Sketch.</desc>
    <defs></defs>
    <g id="Page-1" stroke="none" stroke-width="1" fill="none" fill-rule="evenodd" sketch:type="MSPage">
        <g id="Artboard-1" sketch:type="MSArtboardGroup" fill="#455A64">
            <g id="Imported-Layers" sketch:type="MSLayerGroup" transform="translate(13.000000, 8.000000)">
                <path d="M48.15,27 L46.15,27 L46.15,20 L39.15,20 L39.15,18 L48.15,18 L48.15,27" id="Fill-1" sketch:type="MSShapeGroup"></path>
                <path d="M48.15,74 L0.15,74 L0.15,18 L29.15,18 L29.15,20 L2.15,20 L2.15,72 L46.15,72 L46.15,37 L48.15,37 L48.15,74" id="Fill-2" sketch:type="MSShapeGroup"></path>
                <path d="M30.15,6 L28.15,6 L28.15,0 L34.15,0 L34.15,2 L30.15,2 L30.15,6" id="Fill-3" sketch:type="MSShapeGroup"></path>
                <path d="M33.15,5 L61.15,5 L61.15,33 L33.15,33 L33.15,5 Z M35.15,31 L59.15,31 L59.15,7 L35.15,7 L35.15,31 Z" id="Fill-4" sketch:type="MSShapeGroup"></path>
                <path d="M15.15,44.414 L5.734,35 L15.15,25.586 L24.564,35 L15.15,44.414 L15.15,44.414 Z M8.564,35 L15.15,41.586 L21.734,35 L15.15,28.414 L8.564,35 L8.564,35 Z" id="Fill-5" sketch:type="MSShapeGroup"></path>
                <path d="M66.15,6 L64.15,6 L64.15,2 L60.15,2 L60.15,0 L66.15,0 L66.15,6" id="Fill-6" sketch:type="MSShapeGroup"></path>
                <path d="M66.15,38 L60.15,38 L60.15,36 L64.15,36 L64.15,32 L66.15,32 L66.15,38" id="Fill-7" sketch:type="MSShapeGroup"></path>
                <path d="M34.15,38 L28.15,38 L28.15,32 L30.15,32 L30.15,36 L34.15,36 L34.15,38" id="Fill-8" sketch:type="MSShapeGroup"></path>
                <path d="M35.15,64 C31.29,64 28.15,60.86 28.15,57 C28.15,53.14 31.29,50 35.15,50 C39.008,50 42.15,53.14 42.15,57 C42.15,60.86 39.008,64 35.15,64 L35.15,64 Z M35.15,52 C32.392,52 30.15,54.244 30.15,57 C30.15,59.756 32.392,62 35.15,62 C37.906,62 40.15,59.756 40.15,57 C40.15,54.244 37.906,52 35.15,52 L35.15,52 Z" id="Fill-9" sketch:type="MSShapeGroup"></path>
                <path d="M6.15,50 L24.15,50 L24.15,52 L6.15,52 L6.15,50 Z" id="Fill-10" sketch:type="MSShapeGroup"></path>
                <path d="M6.15,56 L24.15,56 L24.15,58 L6.15,58 L6.15,56 Z" id="Fill-11" sketch:type="MSShapeGroup"></path>
                <path d="M6.15,62 L24.15,62 L24.15,64 L6.15,64 L6.15,62 Z" id="Fill-12" sketch:type="MSShapeGroup"></path>
            </g>
        </g>
    </g>
</svg>