<?xml version="1.0" encoding="UTF-8" standalone="no"?>
<svg width="49px" height="69px" viewBox="0 0 49 69" version="1.1" xmlns="http://www.w3.org/2000/svg" xmlns:xlink="http://www.w3.org/1999/xlink" xmlns:sketch="http://www.bohemiancoding.com/sketch/ns">
    <!-- Generator: Sketch 3.3 (11970) - http://www.bohemiancoding.com/sketch -->
    <title>Imported Layers</title>
    <desc>Created with Sketch.</desc>
    <defs></defs>
    <g id="Page-1" stroke="none" stroke-width="1" fill="none" fill-rule="evenodd" sketch:type="MSPage">
        <g id="Artboard-1-Copy-4" sketch:type="MSArtboardGroup" transform="translate(-19.000000, -11.000000)">
            <g id="Imported-Layers" sketch:type="MSLayerGroup" transform="translate(19.000000, 11.000000)">
                <path d="M7.44674359,67.4305636 C7.96344231,67.7056227 8.42140385,68.0336864 8.88344872,68.3837045 L8.88344872,67.6043182 C8.52442949,67.3449409 8.15064744,67.0943455 7.7423141,66.8769955 C7.58871795,66.79545 7.3993141,66.8534727 7.31733333,67.0062136 C7.23566667,67.1589545 7.29377564,67.3490182 7.44674359,67.4305636" id="Fill-1" fill="#C9C5E0" sketch:type="MSShapeGroup"></path>
                <path d="M27.8096987,56.2174364 C27.167359,55.4255045 26.0824487,56.1471818 26.4012628,56.9880409 C26.3880705,56.9936864 26.3748782,56.9983909 26.3616859,57.0049773 C26.3579167,56.9990182 26.3541474,56.9930591 26.3500641,56.9867864 C26.3202244,57.0121909 26.2947821,57.0397909 26.2655705,57.0655091 C26.2501795,57.0768 26.2338462,57.0852682 26.2187692,57.0981273 L26.2040064,57.1109864 C26.0497821,56.8547455 25.7523269,56.7167455 25.440109,56.9626364 C25.3135256,57.0620591 25.1869423,57.1614818 25.060359,57.2609045 C24.9296923,57.0463773 24.6755833,56.8986545 24.4403205,56.9817682 C24.4619936,56.9466409 24.4839808,56.9118273 24.5059679,56.8767 C24.7556795,56.4796364 24.2832692,56.0518364 23.8934679,56.1619227 C23.7797628,56.1939136 23.6735962,56.2186909 23.5762244,56.2641682 C23.5423013,56.2669909 23.5083782,56.2754591 23.4757115,56.2945909 C23.1857949,56.4652091 22.8958782,56.6323773 22.6031346,56.7948409 C22.5952821,56.7992318 22.5864872,56.8001727 22.5786346,56.8048773 C22.573609,56.8080136 22.5701538,56.8117773 22.5651282,56.8149136 C22.3606474,56.9278227 22.1558526,57.0401045 21.9444615,57.1429773 C21.4428397,57.3869864 21.8656218,58.0553455 22.3289231,57.9606273 C22.3414872,57.9587455 22.3534231,57.9552955 22.3656731,57.9531 C22.3879744,57.9807 22.4074487,58.0092409 22.4338333,58.0352727 C22.4595897,58.0603636 22.4844038,58.0766727 22.5095321,58.0970591 C22.3581346,58.3316591 22.2067372,58.5665727 22.0553397,58.8014864 C21.9394359,58.9812 21.9648782,59.1599727 22.0628782,59.2979727 C21.8408077,59.5670727 21.6265897,59.8446409 21.4202244,60.1316182 C21.0759679,60.6108545 21.5995769,61.4143909 22.1501987,60.9912955 C22.2777244,60.8934409 22.40525,60.7949591 22.5327756,60.6967909 C22.6555897,61.0653136 23.1028718,61.3563682 23.4540385,61.0631182 C23.8777628,60.70965 24.3011731,60.3558682 24.7245833,60.0024 C24.7069936,60.1962273 24.6981987,60.3941318 24.7044808,60.5986227 C24.7211282,61.1612864 25.4680641,61.4225455 25.8355641,60.9985091 C26.0080064,60.7996636 26.1804487,60.6008182 26.3525769,60.4022864 C26.4980064,60.9295091 27.2848333,60.9690273 27.5618718,60.4850864 C28.2064103,59.3588182 28.7278205,57.3490364 27.8096987,56.2174364" id="Fill-2" fill="#FFCC80" sketch:type="MSShapeGroup"></path>
                <path d="M26.7100256,56.2494273 C26.2705962,56.2259045 25.8299103,56.2381364 25.3889103,56.2679318 C23.5850192,56.2089682 20.5266026,56.1722727 21.4371859,57.8718682 C21.7839551,58.5192136 21.9579679,59.1016364 22.0553397,59.8308409 C22.1084231,60.2294727 22.11125,60.7504227 22.4357179,61.0461818 C23.2464167,61.7847955 24.8715833,61.2371864 25.8208013,61.0079182 C26.7059423,60.7940182 26.2523782,59.5325727 25.3999038,59.6909591 C24.9259231,59.7790909 24.4484872,59.8537364 23.9713654,59.9217955 C23.7574615,59.8829045 23.5938141,59.9493955 23.4804231,60.1215818 C23.4499551,59.8935682 23.4166603,59.6658682 23.3805385,59.4384818 C23.3227436,59.0614909 23.235109,58.6932818 23.1283141,58.3272682 C23.0736603,58.1394 22.8883397,57.8496 22.7686667,57.6143727 C22.8685513,57.5688955 22.9784872,57.53565 23.0956474,57.5124409 C23.4248269,57.5155773 23.7552628,57.5005227 24.0856987,57.4820182 C24.4079679,57.5067955 24.7129615,57.5500773 24.9400577,57.5704636 C25.6260577,57.6316227 26.2611731,57.6156273 26.9283269,57.4425 C27.6520192,57.2549455 27.357391,56.2839273 26.7100256,56.2494273" id="Fill-3" fill="#FFCC80" sketch:type="MSShapeGroup"></path>
                <path d="M20.6541282,57.6168818 C17.5008526,57.1194545 13.6392756,55.3038136 12.1149359,52.3004318 C12.0009167,52.0752409 11.6481795,52.1690182 11.6051474,52.3942091 C10.7658654,56.7967227 16.7576859,59.1389591 20.2272628,59.6759045 C21.5625128,59.8825909 22.0000577,57.8292136 20.6541282,57.6168818" id="Fill-4" fill="#E0DFE6" sketch:type="MSShapeGroup"></path>
                <path d="M38.2545513,52.1571 C37.0345769,53.3188091 36.0093462,54.7483636 34.6863462,55.7861864 C33.1626346,56.9811409 31.1932115,57.4305818 29.3092244,57.6388364 C27.9947051,57.7843636 28.1165769,59.8612636 29.4166474,59.6796682 C33.8998333,59.0539636 37.5776603,56.9585591 38.5460385,52.3045091 C38.5821603,52.1307545 38.3720256,52.0454455 38.2545513,52.1571" id="Fill-5" fill="#E0DFE6" sketch:type="MSShapeGroup"></path>
                <path d="M48.5935513,22.3246364 C47.9879615,21.5904136 46.9762372,21.7958455 46.559109,22.3741909 C46.2940064,22.3757591 46.0204231,22.3814045 46.0578013,22.3763864 C45.6799359,22.4265682 45.3196603,22.5846409 44.9879679,22.77 C44.1606218,23.2326136 43.3285641,23.57385 42.3878269,23.7284727 C40.6517821,24.0138818 38.8576282,23.5566 37.3427115,22.7166818 C35.8805641,21.9059318 35.3594679,20.1395318 33.3947564,20.7329318 C32.487,21.00705 31.7422628,21.4712318 30.9859038,22.0354636 C30.1880833,22.6310591 29.1785577,23.5559727 28.1461026,22.9534773 C27.5621859,22.6125545 26.9534551,22.977 26.6245897,23.4590591 C26.3952949,23.7955909 24.3372949,23.1755318 24.0235064,23.1156273 C22.69925,22.86315 21.4108013,22.8038727 20.4031603,21.8109 C19.1756474,20.6012045 16.8776731,21.8275227 15.3137564,22.5934227 C14.948141,22.1085409 14.2473782,21.99375 13.7250256,22.5027818 C13.4511282,22.77 13.1313718,23.0180864 12.7833462,23.20815 C12.8248077,22.4817682 12.2556538,21.7299818 11.4257949,22.09725 C11.3406731,22.1348864 11.2561795,22.1772273 11.1723141,22.2227045 C11.1091795,22.2578318 11.0466731,22.2929591 10.9854231,22.3312227 C10.9716026,22.3396909 10.9577821,22.3478455 10.9442756,22.3566273 C10.8151795,22.4359773 10.6848269,22.5096818 10.5522756,22.5783682 C10.3575321,22.3701136 10.078609,22.2471682 9.72555769,22.2970364 C9.42810256,22.3390636 9.01160256,22.4585591 8.54264744,22.5915409 C8.32151923,22.5523364 8.10039103,22.5128182 7.87957692,22.4733 C7.70744872,21.2526273 6.04207692,21.0716591 5.71635256,22.3092682 C5.67708974,22.4573045 5.61803846,22.5752318 5.54516667,22.6712045 C5.09788462,22.4453864 4.67196154,22.1543318 4.28247436,21.7889455 C3.73467949,21.2758364 2.89759615,21.5461909 2.58129487,22.1076 C2.04292308,21.7732636 1.5921859,21.4314 1.38990385,21.2585864 C1.01580769,20.9396182 0.474608974,21.3937636 0.733115385,21.8146636 C1.62171154,23.2617818 2.57061538,24.4319591 4.20834615,24.8475273 C4.72190385,25.0645636 5.29796795,25.1376409 5.90230128,25.1276045 C7.27838462,25.5290591 8.74964103,25.5525818 10.1254103,25.1520682 C10.1800641,25.2132273 10.2356603,25.2743864 10.3025641,25.3342909 C11.3111474,26.2410136 12.9815449,25.5663818 14.1898974,24.7615909 C14.4229615,24.9805091 14.8774679,25.0526455 15.1592179,24.9378545 C15.9256282,24.6257864 18.6840769,23.0039727 19.3361538,23.7121636 C20.1311474,24.5752909 21.3947821,24.8735591 22.4903718,25.11945 C24.1761603,25.4973818 26.3327885,26.2121591 27.8216346,25.27815 C28.6621731,25.5372136 29.5218718,25.4170909 30.3941346,25.0730318 C31.6046859,24.5953636 32.7652949,23.03565 34.1055705,22.9032955 C36.0649423,25.3132773 38.9656795,26.5436727 42.1060769,26.3680364 C42.9101795,26.3231864 43.7208782,26.1240273 44.4747244,25.8524182 C45.1352821,25.6143682 46.099891,24.71925 46.7862051,24.7976591 C48.1167436,24.9494591 49.6775192,23.6381455 48.5935513,22.3246364" id="Fill-6" fill="#E0DFE6" sketch:type="MSShapeGroup"></path>
                <path d="M14.9321218,21.1996227 C12.5556218,21.5004 10.3569038,22.1292409 7.93014744,22.0941136 C6.81257051,22.0781182 5.7088141,21.8497909 4.63709615,21.5505818 C4.0421859,21.3846682 3.47114744,21.1516364 2.90764744,20.9016682 C2.5966859,20.7733909 2.29137821,20.6325682 1.99203846,20.4795136 C1.79698077,20.2584 1.63584615,20.1872045 1.50769231,20.2605955 C1.48790385,20.2351909 1.46497436,20.2116682 1.43733333,20.1944182 C1.41534615,20.1803045 1.39335897,20.1665045 1.37137179,20.1523909 C1.27557051,20.0915455 1.09684615,20.1213409 1.03151282,20.2166864 C0.14825641,21.5047909 4.56202564,23.0278091 5.31555769,23.26335 C8.42642949,24.2356227 12.4538526,24.0646909 15.3976218,22.6479955 C16.1100064,22.3051909 15.6869103,21.1042773 14.9321218,21.1996227" id="Fill-7" fill="#E0DFE6" sketch:type="MSShapeGroup"></path>
                <path d="M17.3130192,20.4500318 C16.1910449,20.7106636 15.1463397,21.2836773 14.0246795,21.5891591 C12.80125,21.9225545 11.5410705,22.02135 10.2786923,22.01445 C7.44108974,21.9993955 4.16625641,21.1165091 2.28164103,18.8959636 C2.03161538,18.6014591 1.59564103,18.86805 1.77279487,19.2208909 C3.02229487,21.7089682 6.60463462,22.9757455 9.17367949,23.4051136 C11.9377821,23.8667864 15.915891,23.6168182 18.0992179,21.6663136 C18.7085769,21.1218409 17.961641,20.2994864 17.3130192,20.4500318" id="Fill-8" fill="#E0DFE6" sketch:type="MSShapeGroup"></path>
                <path d="M31.6659359,19.5577364 C29.9289487,20.6724 28.2004423,21.5433682 26.1361603,21.8598273 C26.0262244,21.87645 25.9162885,21.8852318 25.8063526,21.8990318 C25.3961346,21.8544955 25.0028782,21.8018045 24.6432308,21.7550727 C24.3454615,21.7168091 24.1076859,21.8165455 23.9415256,21.9805773 C23.6060641,21.9667773 23.2706026,21.9426273 22.9348269,21.8958955 C22.6524487,21.8570045 21.1375321,21.4530409 20.4760321,20.9985818 C20.4841987,20.9640818 20.4779167,20.9261318 20.4474487,20.8894364 C20.3538462,20.7056455 20.2605577,20.5215409 20.1672692,20.33775 C20.1038205,20.0488909 19.6863782,19.9839682 19.5079679,20.1959864 C19.021109,20.7737045 19.4727885,21.5129455 19.9555641,21.9815182 C21.0624615,23.0554091 22.5161282,23.4446318 24.0134551,23.6121136 C24.6843782,23.6873864 25.3640962,23.6955409 26.0419295,23.6481818 C28.7934679,23.9706 31.5387244,23.5032818 32.9455897,20.7078409 C33.3423013,19.9193591 32.410359,19.0800682 31.6659359,19.5577364" id="Fill-9" fill="#E0DFE6" sketch:type="MSShapeGroup"></path>
                <path d="M45.2222885,19.4972045 C43.6693654,20.7269727 42.3906538,21.8639045 40.3580962,22.2242727 C37.9420192,22.6527 35.4945321,21.7368818 34.058141,19.7710091 C33.8332436,19.4630182 33.3416731,19.6788 33.4500385,20.0561045 C34.1143654,22.3629 37.1928846,23.7626591 39.4179872,23.8696091 C42.0269231,23.9950636 45.0664936,22.9509682 46.3511731,20.5121318 C46.6960577,19.8578864 45.8492372,19.0007182 45.2222885,19.4972045" id="Fill-10" fill="#E0DFE6" sketch:type="MSShapeGroup"></path>
                <path d="M47.9383333,21.9250636 C47.8092372,21.6324409 47.5868526,21.4056818 47.4178654,21.1350136 C47.3955641,21.0992591 47.3773462,21.06225 47.3594423,21.0246136 C47.4816282,20.5522773 47.3537885,20.0231727 47.1062756,19.5969409 C46.7547949,18.9916227 45.940641,19.2723273 45.7669423,19.8434591 C45.6689423,20.1665045 45.6353333,20.4911182 45.6494679,20.8125955 C45.6014103,20.8671682 45.5511538,20.9198591 45.5008974,20.9719227 C45.2307692,21.1074136 44.9650385,21.2400818 44.8978205,21.2658 C44.4499103,21.4379864 44.0475449,21.6819955 43.7686218,22.0774909 C43.49975,22.4585591 43.6338718,22.9058045 43.9413782,23.0927318 C43.7296731,23.1084136 43.5185962,23.1219 43.3125449,23.1353864 C42.4135833,23.19435 42.2596731,24.5937955 43.1906731,24.7349318 C44.7872564,24.9767455 46.21925,24.9403636 47.4565,23.7912 C47.971,23.3132182 48.2260513,22.5777409 47.9383333,21.9250636 L47.9383333,21.9250636 Z M45.8658846,22.6018909 C45.6877885,22.7314227 45.4855064,22.7944636 45.2794551,22.8634636 C45.1183205,22.9170955 44.9518462,22.9578682 44.782859,22.9904864 C45.0250321,22.8455864 45.2558974,22.6781045 45.4685449,22.49055 C45.6180577,22.4334682 45.7735385,22.3836 45.9287051,22.3268318 C45.9676538,22.3124045 46.0031474,22.2939 46.0411538,22.2782182 C46.0603141,22.3183636 46.0804167,22.3581955 46.1008333,22.3980273 C46.0317308,22.4761227 45.9557179,22.5466909 45.8658846,22.6018909 L45.8658846,22.6018909 Z" id="Fill-11" fill="#E0DFE6" sketch:type="MSShapeGroup"></path>
                <path d="M12.0709615,24.5655682 C9.72084615,25.0379045 7.30476923,25.5685773 5.10605128,24.3049364 C4.75739744,24.1045227 4.36853846,24.6606 4.70305769,24.8948864 C7.05097436,26.5374 9.75759615,26.2683 12.4243269,25.6720773 C13.1634103,25.5071045 12.7930833,24.4203545 12.0709615,24.5655682" id="Fill-12" fill="#E0DFE6" sketch:type="MSShapeGroup"></path>
                <path d="M15.3621282,68.7058091 C14.2828718,68.7058091 13.2246603,68.6967136 12.2176474,68.6782091 C12.0920064,68.6760136 11.9726474,68.6236364 11.8859551,68.5333091 C11.7989487,68.4429818 11.7518333,68.3216045 11.7549744,68.1964636 C11.7659679,67.7373 11.7706795,67.2781364 11.7700513,66.8192864 C11.7678526,63.6035727 11.5030641,60.3373636 11.2473846,57.1787318 C10.9901346,54.0012818 10.7244038,50.7159409 10.7215769,47.4629045 C10.7212628,47.1006545 10.7244038,46.7384045 10.731,46.3752136 C10.7335128,46.2478773 10.7875385,46.1265 10.881141,46.0396227 C10.9744295,45.9530591 11.0997564,45.9069545 11.2269679,45.9141682 C14.6827244,46.0967045 18.326,46.1854636 22.365359,46.1854636 L22.5761218,46.1854636 C27.6523333,46.1813864 32.6647821,46.0440136 38.6289615,45.8385818 C38.7539744,45.8326227 38.8811859,45.8818636 38.9732179,45.9709364 C39.0649359,46.0596955 39.1167628,46.1820136 39.1167628,46.3096636 L39.1114231,48.6434318 C39.1073397,50.1485727 39.1032564,51.64995 39.1045128,53.1497591 C39.1076538,57.4782545 39.1516282,62.5914682 39.4525385,67.6977818 C39.4600769,67.8266864 39.4139038,67.9533955 39.3253269,68.0474864 C39.23675,68.1418909 39.1133077,68.1955227 38.9838974,68.19615 C35.2005321,68.2121455 31.3512051,68.3332091 27.6284615,68.4498818 C23.6622885,68.5740818 19.5610513,68.7026727 15.5235769,68.7058091 L15.3621282,68.7058091 L15.3621282,68.7058091 Z M12.706391,67.7451409 C13.5648333,67.758 14.4556282,67.7645864 15.3621282,67.7645864 L15.5229487,67.7645864 C19.5459744,67.76145 23.6396731,67.6331727 27.5986218,67.5089727 C31.1655705,67.3973182 34.8477949,67.2819 38.4832179,67.2574364 C38.2064936,62.2935136 38.1650321,57.3524864 38.1615769,53.1503864 C38.1606346,51.6496364 38.1647179,50.1470045 38.1688013,48.6409227 L38.1728846,46.7961136 C32.4125577,46.99245 27.5266923,47.1229227 22.57675,47.1266864 L22.365359,47.1266864 C18.4993846,47.1266864 14.9933718,47.0457682 11.6667115,46.8792273 C11.6648269,47.0736818 11.6641987,47.2681364 11.6645128,47.4622773 C11.6667115,50.6776773 11.9311859,53.9438864 12.1871795,57.1025182 C12.4441154,60.2799682 12.7101603,63.5653091 12.7129872,66.8183455 C12.7133013,67.1269636 12.7111026,67.4358955 12.706391,67.7451409 L12.706391,67.7451409 Z" id="Fill-13" fill="#525D7D" sketch:type="MSShapeGroup"></path>
                <path d="M21.3002372,57.8499136 C21.2810769,57.8499136 21.2619167,57.8489727 21.2430705,57.8467773 C15.1494808,57.1113 13.7033526,55.0237364 12.0288718,52.6065409 C11.6811603,52.1040955 11.3211987,51.5850273 10.9050128,51.0571773 C10.7438782,50.853 10.7790577,50.5572409 10.9835385,50.3963455 C11.1880192,50.23545 11.4842179,50.2705773 11.6453526,50.4750682 C12.0797564,51.0255 12.4478846,51.5571136 12.8040769,52.0711636 C14.4129103,54.3933273 15.6837692,56.2277864 21.3558333,56.9121409 C21.6143397,56.9435045 21.7984038,57.1777909 21.7673077,57.4359136 C21.7384103,57.6745909 21.5351859,57.8499136 21.3002372,57.8499136" id="Fill-14" fill="#525D7D" sketch:type="MSShapeGroup"></path>
                <path d="M28.3238846,58.1070955 C28.0748013,58.1070955 27.8668654,57.9123273 27.8536731,57.6611045 C27.8398526,57.4017273 28.0396218,57.1803 28.2993846,57.1665 C34.6084487,56.8340455 36.2031474,53.9285182 38.2221987,50.2505045 C38.3472115,50.0224909 38.6339872,49.9390636 38.8617115,50.0638909 C39.0900641,50.1890318 39.1736154,50.4750682 39.0482885,50.7027682 C37.0603333,54.3249545 35.1826282,57.7461 28.3490128,58.1064682 C28.3405321,58.1067818 28.3320513,58.1070955 28.3238846,58.1070955" id="Fill-15" fill="#525D7D" sketch:type="MSShapeGroup"></path>
                <path d="M27.2801218,61.6323682 C26.5146538,61.6323682 25.7391346,61.6144909 24.9893718,61.5972409 C24.2449487,61.5799909 23.4750833,61.5624273 22.720609,61.5624273 L22.6232372,61.5624273 C21.7936923,61.5624273 21.1155449,60.9351545 21.0429872,60.1037045 C20.9449872,58.9730455 20.821859,57.4832727 20.7401923,55.9878545 C20.7332821,55.8583227 20.7797692,55.7316136 20.8692885,55.6378364 C20.9591218,55.5437455 21.0973269,55.4973273 21.2132308,55.4916818 L21.3932115,55.4919955 C22.6398846,55.4910545 23.9163974,55.4233091 25.1501923,55.3577591 C26.1575192,55.3047545 27.1990833,55.2492409 28.2261987,55.2301091 C28.4674295,55.2185045 28.6898141,55.4192318 28.7055192,55.6704545 C28.7529487,56.4159682 28.7793333,57.1708909 28.8050897,57.9004091 C28.8283333,58.5668864 28.8525192,59.2556318 28.8924103,59.9305773 C28.9187949,60.3775091 28.759859,60.8187955 28.4554936,61.1415273 C28.1577244,61.4576727 27.7566154,61.6317409 27.326609,61.6323682 L27.2801218,61.6323682 L27.2801218,61.6323682 Z M22.720609,60.6212045 C23.4857628,60.6212045 24.2612821,60.6387682 25.0110449,60.6563318 C25.7554679,60.6732682 26.5253333,60.6911455 27.2801218,60.6911455 L27.3137308,60.6911455 C27.4930833,60.6908318 27.6507628,60.6218318 27.7688654,60.4963773 C27.896391,60.3615136 27.9626667,60.1755273 27.951359,59.9860909 C27.9108397,59.3001682 27.8863397,58.60515 27.8627821,57.9333409 C27.8429936,57.3584455 27.8219487,56.7678682 27.7911667,56.1816818 C26.9258141,56.2061455 26.0507244,56.2525636 25.2001346,56.2980409 C24.0574295,56.3582591 22.8782885,56.4209864 21.7098269,56.43165 C21.7892949,57.7442182 21.8954615,59.0238545 21.9821538,60.0221591 C22.0119936,60.3637091 22.2865192,60.6212045 22.6210385,60.6212045 L22.720609,60.6212045 L22.720609,60.6212045 Z" id="Fill-16" fill="#525D7D" sketch:type="MSShapeGroup"></path>
                <path d="M18.5493269,47.0984591 C18.4795962,47.0984591 18.4092372,47.0830909 18.3426474,47.0504727 C18.108641,46.9363091 18.0118974,46.6546636 18.1259167,46.4210045 C19.4021154,43.8118636 21.7063718,42.19005 24.1394103,42.1881682 C27.2750962,42.1881682 29.3959167,44.4247091 30.6240577,46.3015091 C30.7663462,46.5191727 30.7054103,46.8108545 30.4877372,46.9529318 C30.2694359,47.0946955 29.9776346,47.0341636 29.8350321,46.8165 C28.7341026,45.1341545 26.8529423,43.1293909 24.1441218,43.1293909 C22.0701026,43.1309591 20.09,44.5504773 18.9730513,46.8343773 C18.8913846,47.0012318 18.7236538,47.0984591 18.5493269,47.0984591" id="Fill-17" fill="#525D7D" sketch:type="MSShapeGroup"></path>
                <path d="M41.763391,27.0219682 C38.9584551,27.0219682 35.9512372,25.6146818 33.2414744,23.0475682 C31.3153974,25.4374773 29.1160513,26.5555909 26.3591731,26.5577864 C23.8758782,26.5577864 21.195641,25.4942455 18.9438397,23.6281091 C16.6100577,25.4998909 13.7680577,26.4119455 10.2705256,26.4144545 C6.34926923,26.4144545 2.77007051,25.0024636 0.180294872,22.4388 C0.0615641026,22.3211864 0.0144487179,22.1499409 0.0555961538,21.9881045 C1.56328846,16.0798227 4.95559615,10.6203545 9.60839744,6.61584545 C14.4317564,2.46455455 20.3284038,0.17595 26.2115449,0.171245455 C39.8131282,0.171245455 44.3732692,10.2712773 48.9243013,23.4747409 C48.9874359,23.6582182 48.9312115,23.8617682 48.7832692,23.9869091 C46.3357821,26.0559682 44.1050256,27.0200864 41.763391,27.0219682 L41.763391,27.0219682 Z M33.1924744,21.8720591 C33.316859,21.8720591 33.4368462,21.9213 33.5254231,22.0097455 C35.0481923,23.5302545 38.1424167,26.0807455 41.7567949,26.0807455 L41.7567949,26.5512 L41.7627628,26.0807455 C43.7924936,26.0791773 45.7578333,25.2496091 47.9270256,23.4741136 C43.5355577,10.78125 39.0862949,1.11246818 26.2322756,1.11246818 C20.5545577,1.11685909 14.8765256,3.32454545 10.2240385,7.32874091 C5.78545513,11.1488318 2.53072436,16.3354364 1.03748077,21.9573682 C3.4051859,24.1951636 6.74912179,25.4732318 10.2585897,25.4732318 C13.6898462,25.4707227 16.4281923,24.5489455 18.641359,22.6555227 C18.8194551,22.5034091 19.0826731,22.5046636 19.2588846,22.6596 C21.4023205,24.5385955 23.9876987,25.6165636 26.3522628,25.6165636 C28.9869551,25.6143682 30.9780513,24.5178955 32.8149231,22.0611818 C32.8965897,21.9517227 33.0219167,21.8830364 33.1582372,21.8733136 C33.169859,21.8723727 33.1811667,21.8720591 33.1924744,21.8720591 L33.1924744,21.8720591 Z" id="Fill-18" fill="#525D7D" sketch:type="MSShapeGroup"></path>
                <path d="M19.8591346,45.1683409 C19.7344359,45.1683409 19.6100513,45.1191 19.517391,45.0215591 C13.6622051,38.8617409 8.80649359,31.3695955 4.90502564,25.3496591 C4.76367949,25.1313682 4.8261859,24.84 5.04480128,24.6988636 C5.26310256,24.5577273 5.55490385,24.6201409 5.6965641,24.8381182 C9.57667308,30.8254364 14.406,38.2771227 20.2008782,44.3735864 C20.3802308,44.5623955 20.3720641,44.8600364 20.1836026,45.0391227 C20.0925128,45.1253727 19.9756667,45.1683409 19.8591346,45.1683409" id="Fill-19" fill="#525D7D" sketch:type="MSShapeGroup"></path>
                <path d="M25.5877372,43.3116136 C25.3301731,43.3116136 25.1200385,43.1049273 25.1165833,42.8471182 C25.1090449,42.2810045 25.1055897,41.7155182 25.1049615,41.1506591 C25.1030769,38.3069182 25.1806603,35.4355773 25.2557308,32.6586409 C25.3144679,30.5005091 25.3747756,28.2689864 25.3970769,26.0688273 C25.3995897,25.8103909 25.6100385,25.6027636 25.8682308,25.6027636 C26.1333333,25.6055864 26.3422115,25.8182318 26.3393846,26.0782364 C26.3170833,28.28655 26.2567756,30.52215 26.1980385,32.6840455 C26.1232821,35.4543955 26.0456987,38.3194636 26.0478974,41.1500318 C26.0485256,41.7108136 26.0513526,42.2725364 26.058891,42.8348864 C26.0623462,43.0948909 25.8544103,43.3084773 25.5877372,43.3116136" id="Fill-20" fill="#525D7D" sketch:type="MSShapeGroup"></path>
                <path d="M28.870109,45.28125 C28.7695962,45.28125 28.6678269,45.2489455 28.5820769,45.1827682 C28.3763397,45.0237545 28.3383333,44.7283091 28.4978974,44.5225636 C31.2403269,40.9816091 34.0022308,37.3907864 36.673359,33.9185182 C38.6613141,31.3341545 40.6489551,28.7497909 42.6472756,26.1616636 C42.8068397,25.9559182 43.1030385,25.9173409 43.3084615,26.0760409 C43.5145128,26.2347409 43.5528333,26.5301864 43.3938974,26.7362455 C41.395891,29.3240591 39.4085641,31.9077955 37.4209231,34.4918455 C34.7494808,37.9647409 31.9869487,41.5561909 29.2432628,45.0984 C29.1506026,45.2182091 29.0108269,45.28125 28.870109,45.28125" id="Fill-21" fill="#525D7D" sketch:type="MSShapeGroup"></path>
                <path d="M18.6473269,23.5710273 C18.4073526,23.5710273 18.2016154,23.3881773 18.1786859,23.1444818 C18.108641,22.4002227 18.0728333,21.6380864 18.071891,20.8794 C18.0674936,14.9265818 20.2304038,8.88908182 24.0062308,4.31438182 C24.1714487,4.11334091 24.4685897,4.08511364 24.6696154,4.25071364 C24.870641,4.416 24.8992244,4.71238636 24.7336923,4.91311364 C21.0945,9.32158636 19.0101154,15.1407955 19.0148269,20.8787727 C19.015141,21.6086045 19.0496923,22.3409455 19.1172244,23.05635 C19.1414103,23.3151 18.9513782,23.5443682 18.6922436,23.5691455 C18.6771667,23.5704 18.6620897,23.5710273 18.6473269,23.5710273" id="Fill-22" fill="#525D7D" sketch:type="MSShapeGroup"></path>
                <path d="M33.4673141,22.8913773 C33.2040962,22.8898091 32.9945897,22.6781045 32.9961603,22.4181 L32.9964744,22.1104227 C32.9911346,14.4514227 31.3565449,9.16602273 27.8524167,5.47609091 C27.6733782,5.28728182 27.6812308,4.98964091 27.8700064,4.81055455 C28.0587821,4.63209545 28.3571795,4.63962273 28.5365321,4.82843182 C32.2165577,8.70372273 33.9334423,14.1948682 33.9394103,22.1088545 L33.9384679,22.4237455 C33.9368974,22.6824955 33.7264487,22.8913773 33.4673141,22.8913773" id="Fill-23" fill="#525D7D" sketch:type="MSShapeGroup"></path>
            </g>
        </g>
    </g>
</svg>